<svg xmlns="http://www.w3.org/2000/svg" viewBox="0 0 256 256" width="256" height="256" style="color: #000">
<g transform="translate(30.09,48.53) scale(0.195779,0.212214) translate(-41.00,782.00) scale(1,-1)">
  <path d="M 198 381 Q 198 387 200 395 Q 208 449 211 506 L 212 544 Q 212 694 217 705 C 219 724 219 724 196 735 Q 152 759 133 751 Q 123 742 131 729 Q 153 706 158 641 L 159 613 Q 165 446 139 318 Q 112 204 48 82 L 42 69 Q 41 59 51 63 Q 67 67 92 104 Q 135 169 168 257 Q 180 296 190 345 L 198 381 Z" fill="currentColor" />
  <path d="M 217 705 L 289 727 Q 298 729 304 727 Q 326 723 325 672 Q 334 360 319 177 Q 318 149 310 137 Q 306 137 244 139 Q 243 140 242 140 Q 224 145 225 135 Q 242 122 255 108 Q 277 88 306 54 Q 318 40 330 36 Q 343 33 361 58 Q 387 96 386 147 Q 363 657 390 710 Q 402 729 390 741 Q 367 760 332 774 Q 312 782 269 757 Q 239 745 196 735 C 167 728 188 696 217 705 Z" fill="currentColor" />
  <path d="M 211 506 Q 260 514 295 515 Q 319 519 310 534 Q 298 549 272 553 Q 248 555 212 544 C 183 535 181 501 211 506 Z" fill="currentColor" />
  <path d="M 190 345 Q 205 345 287 355 Q 314 359 302 373 Q 274 406 198 381 C 169 372 160 344 190 345 Z" fill="currentColor" />
</g>
<g transform="translate(111.00,42.82) scale(0.168025,0.211616) translate(-114.00,802.00) scale(1,-1)">
  <path d="M 319 541 Q 307 548 271 552 Q 258 555 255 549 Q 248 543 258 526 Q 291 465 312 362 Q 313 343 323 327 C 337 301 363 302 362 332 Q 362 350 357 373 Q 338 470 331 505 C 325 534 324 539 319 541 Z" fill="currentColor" />
  <path d="M 715 386 Q 742 497 781 527 Q 800 546 784 567 Q 708 627 664 609 Q 597 585 536 571 L 484 561 Q 403 549 319 541 C 289 538 301 501 331 505 Q 344 506 359 510 Q 420 520 483 530 L 534 539 Q 580 548 627 556 Q 661 563 674 549 Q 686 539 684 514 Q 674 436 657 376 C 649 347 708 357 715 386 Z" fill="currentColor" />
  <path d="M 531 318 Q 646 334 892 334 Q 914 334 920 344 Q 926 357 907 372 Q 841 420 779 399 Q 749 395 715 386 L 657 376 Q 594 369 523 355 L 471 348 Q 416 341 362 332 L 323 327 Q 233 318 138 305 Q 114 302 132 283 Q 166 252 209 261 Q 326 294 459 311 Q 460 311 466 311 L 531 318 Z" fill="currentColor" />
  <path d="M 536 571 Q 539 670 566 734 Q 573 750 561 762 Q 537 781 494 795 Q 466 802 456 794 Q 446 787 454 773 Q 479 733 482 681 Q 483 621 484 561 L 483 530 Q 482 442 472 356 Q 471 353 471 348 L 466 311 Q 447 188 376 125 Q 316 70 185 19 Q 170 12 169 8 Q 170 4 182 1 Q 204 -3 257 12 Q 347 33 410 88 Q 491 158 515 295 L 523 355 Q 524 368 525 380 Q 529 462 534 539 L 536 571 Z" fill="currentColor" />
  <path d="M 515 295 Q 603 165 720 25 Q 739 3 774 3 Q 891 4 928 9 Q 938 12 940 17 Q 941 23 925 31 Q 771 91 719 134 Q 631 210 531 318 C 511 340 498 320 515 295 Z" fill="currentColor" />
</g>
</svg>