<svg xmlns="http://www.w3.org/2000/svg" viewBox="0 0 256 256" width="256" height="256" style="color: #000">
<g transform="translate(4.20,11.11) scale(0.272777,0.272777) translate(-311.00,811.00) scale(1,-1)">
  <path d="M 372 524 Q 354 451 324 382 Q 311 343 331 315 Q 341 299 360 314 Q 379 333 390 366 Q 409 423 405 470 Q 406 504 395 527 Q 389 534 383 535 Q 376 532 372 524 Z" fill="currentColor" />
  <path d="M 539 524 Q 552 518 620 461 Q 633 451 647 451 Q 657 452 661 464 Q 665 477 655 505 Q 648 527 614 542 Q 578 555 540 563 C 511 569 513 539 539 524 Z" fill="currentColor" />
  <path d="M 532 47 Q 531 96 539 524 L 540 563 Q 541 654 559 717 Q 569 733 566 747 Q 559 757 501 793 Q 476 811 455 795 Q 449 789 456 773 Q 487 724 489 649 Q 489 217 469 126 Q 465 108 459 89 Q 447 47 474 -17 Q 481 -36 489 -39 Q 496 -46 503 -37 Q 512 -33 522 -11 Q 532 14 532 47 Z" fill="currentColor" />
</g>
<g transform="translate(111.00,40.72) scale(0.204649,0.204649) translate(-182.00,801.00) scale(1,-1)">
  <path d="M 259 724 Q 232 739 205 743 Q 198 746 191 739 Q 182 732 195 719 Q 247 646 268 454 Q 274 391 316 355 Q 319 354 323 351 Q 341 347 342 373 L 340 410 Q 336 435 327 464 Q 297 629 292 687 C 290 708 286 710 259 724 Z" fill="currentColor" />
  <path d="M 660 410 Q 681 377 700 367 Q 713 357 732 383 Q 756 423 803 634 Q 816 671 845 701 Q 861 716 848 734 Q 829 755 778 789 Q 756 801 669 782 Q 590 773 417 747 Q 329 732 259 724 C 229 720 263 680 292 687 Q 355 702 446 714 L 509 725 Q 704 759 729 733 Q 748 708 743 685 Q 703 489 685 460 Q 679 445 660 441 C 645 431 645 431 660 410 Z" fill="currentColor" />
  <path d="M 528 563 Q 585 573 642 584 Q 643 587 646 589 Q 647 599 627 608 Q 594 626 530 603 L 473 590 Q 392 580 383 577 Q 358 573 378 559 Q 405 541 444 547 Q 456 550 472 552 L 528 563 Z" fill="currentColor" />
  <path d="M 524 398 Q 584 405 660 410 C 690 412 685 425 660 441 Q 627 468 538 443 Q 531 443 525 440 L 470 430 Q 400 418 340 410 C 310 406 313 365 342 373 Q 372 383 469 393 L 524 398 Z" fill="currentColor" />
  <path d="M 464 -7 Q 470 -35 477 -45 Q 483 -52 491 -50 Q 506 -41 515 24 Q 525 115 524 206 Q 523 257 524 398 L 525 440 Q 526 495 528 563 L 530 603 Q 531 631 543 681 Q 547 700 531 711 Q 518 720 509 725 C 484 741 431 740 446 714 Q 452 702 459 691 Q 472 664 473 590 L 472 552 Q 471 497 470 430 L 469 393 Q 463 14 464 -7 Z" fill="currentColor" />
</g>
</svg>