<svg xmlns="http://www.w3.org/2000/svg" viewBox="0 0 256 256" width="256" height="256" style="color: #000">
<g transform="translate(2.10,33.90) scale(0.206056,0.246671) translate(-256.00,785.00) scale(1,-1)">
  <path d="M 329 714 Q 320 723 298 731 Q 286 737 273 732 Q 266 726 272 712 Q 275 699 281 685 Q 309 624 291 287 Q 285 239 271 184 Q 256 121 295 70 Q 308 54 320 69 Q 335 87 334 115 L 338 152 Q 339 180 340 216 Q 341 280 342 336 L 342 369 Q 343 439 345 493 L 346 525 Q 349 646 351 660 Q 352 670 352 677 C 353 698 353 698 329 714 Z" fill="currentColor" />
  <path d="M 597 135 Q 637 86 665 43 Q 675 22 688 23 Q 707 24 724 63 Q 743 108 739 161 Q 726 329 717 637 Q 716 674 735 699 Q 745 714 735 725 Q 713 747 653 775 Q 632 785 614 775 Q 494 727 329 714 C 299 711 322 673 352 677 Q 361 677 586 717 Q 620 723 636 710 Q 676 667 660 203 Q 657 181 656 163 Q 652 144 633 149 C 608 132 591 142 597 135 Z" fill="currentColor" />
  <path d="M 345 493 Q 369 486 539 511 Q 542 512 548 512 Q 581 518 586 522 Q 593 529 590 537 Q 584 549 558 556 Q 530 563 503 553 Q 466 543 426 535 Q 389 529 346 525 C 316 522 315 498 345 493 Z" fill="currentColor" />
  <path d="M 342 336 Q 382 329 540 348 Q 544 349 550 349 Q 584 353 589 358 Q 598 365 594 373 Q 588 385 562 393 Q 535 400 507 392 Q 470 382 428 376 Q 388 370 342 369 C 312 368 312 340 342 336 Z" fill="currentColor" />
  <path d="M 334 115 Q 376 130 597 135 C 627 136 641 136 633 149 Q 630 159 604 178 Q 588 188 554 183 Q 436 161 338 152 C 308 149 305 107 334 115 Z" fill="currentColor" />
</g>
<g transform="translate(107.98,19.04) scale(0.223074,0.247565) translate(-187.00,866.00) scale(1,-1)">
  <path d="M 604 804 Q 610 806 629 808 Q 690 818 700 825 Q 708 832 705 840 Q 699 853 672 860 Q 649 866 517 834 Q 392 815 312 811 Q 278 809 301 792 Q 322 774 357 774 L 406 778 Q 510 792 555 798 L 604 804 Z" fill="currentColor" />
  <path d="M 250 684 Q 243 685 235 686 Q 198 692 194 686 Q 187 678 199 663 Q 202 659 206 653 Q 223 624 245 565 Q 259 526 272 515 Q 291 497 295 512 Q 296 519 296 521 L 293 552 L 293 556 L 270 647 C 263 676 261 682 250 684 Z" fill="currentColor" />
  <path d="M 686 572 Q 705 535 719 532 Q 729 531 743 545 Q 753 556 785 613 Q 792 631 805 647 L 827 670 Q 837 682 829 694 Q 812 715 772 746 Q 755 758 688 743 Q 620 737 612 731 L 555 725 Q 492 719 431 709 L 383 701 Q 296 688 250 684 C 220 681 240 642 270 647 Q 275 647 284 649 Q 343 664 390 672 L 435 680 Q 486 690 552 698 L 604 706 Q 678 717 711 710 Q 743 704 737 684 Q 713 609 698 602 C 681 581 681 581 686 572 Z" fill="currentColor" />
  <path d="M 357 774 Q 370 752 383 701 L 390 672 Q 395 638 409 566 C 415 537 450 542 447 572 Q 439 649 435 680 L 431 709 Q 428 727 428 743 Q 432 761 406 778 C 382 795 343 800 357 774 Z" fill="currentColor" />
  <path d="M 612 731 L 613 739 L 627 768 Q 631 778 619 793 Q 611 802 604 804 C 577 818 543 826 555 798 Q 563 782 561 768 L 555 725 L 552 698 L 531 588 C 525 559 560 566 568 595 Q 586 658 604 706 L 612 731 Z" fill="currentColor" />
  <path d="M 296 521 Q 309 519 329 524 Q 447 551 686 572 C 716 575 723 585 698 602 Q 692 608 686 610 Q 662 619 568 595 L 531 588 Q 486 581 447 572 L 409 566 Q 365 562 293 552 C 263 548 266 522 296 521 Z" fill="currentColor" />
</g>
<g transform="translate(112.15,115.51) scale(0.157071,0.151905) translate(-41.00,853.00) scale(1,-1)">
  <path d="M 306 551 Q 340 605 379 667 Q 412 730 442 760 Q 452 773 447 789 Q 443 805 408 831 Q 377 853 354 852 Q 332 851 341 824 Q 360 784 344 748 Q 298 631 225 523 Q 155 420 60 305 Q 48 292 45 285 Q 41 272 58 275 Q 112 287 277 510 L 306 551 Z" fill="currentColor" />
  <path d="M 346 138 Q 346 396 356 458 Q 365 488 340 514 Q 310 548 306 551 C 285 573 264 537 277 510 Q 278 504 283 498 Q 301 461 303 424 Q 303 378 302 332 Q 302 205 269 75 Q 263 53 273 16 Q 286 -23 298 -35 Q 319 -53 331 -23 Q 344 19 346 107 L 346 138 Z" fill="currentColor" />
  <path d="M 566 754 Q 593 732 621 707 Q 637 694 655 695 Q 668 696 672 712 Q 676 730 664 763 Q 657 782 624 794 Q 548 815 532 807 Q 526 803 529 788 Q 533 775 566 754 Z" fill="currentColor" />
  <path d="M 606 566 Q 667 579 735 591 Q 787 601 794 609 Q 803 616 799 624 Q 792 636 764 644 Q 737 650 616 613 Q 475 589 430 584 Q 394 578 419 562 Q 453 538 557 557 L 606 566 Z" fill="currentColor" />
  <path d="M 632 411 Q 675 421 725 429 Q 768 439 774 445 Q 783 452 779 460 Q 772 472 744 479 Q 723 485 633 458 L 576 444 Q 521 434 457 428 Q 423 422 447 406 Q 481 385 557 397 Q 564 398 576 400 L 632 411 Z" fill="currentColor" />
  <path d="M 628 280 Q 779 311 786 317 Q 795 324 791 332 Q 784 344 756 352 Q 732 358 629 326 L 576 313 Q 518 303 450 296 Q 414 290 439 274 Q 473 253 547 265 Q 559 268 576 270 L 628 280 Z" fill="currentColor" />
  <path d="M 625 171 Q 626 228 628 280 L 629 326 Q 630 371 632 411 L 633 458 Q 633 485 636 512 Q 645 539 606 566 C 582 584 547 585 557 557 Q 572 521 576 444 L 576 400 Q 576 364 576 313 L 576 270 Q 576 224 576 165 C 576 135 624 141 625 171 Z" fill="currentColor" />
  <path d="M 576 165 Q 470 153 346 138 C 316 134 319 119 346 107 Q 373 92 400 98 Q 553 137 848 137 Q 864 137 882 136 Q 901 136 907 144 Q 911 156 896 170 Q 836 215 787 198 Q 721 188 625 171 L 576 165 Z" fill="currentColor" />
</g>
</svg>