<svg xmlns="http://www.w3.org/2000/svg" viewBox="0 0 256 256" width="256" height="256" style="color: #000">
<g transform="translate(69.24,4.51) scale(0.140228,0.140228) translate(-103.00,778.00) scale(1,-1)">
  <path d="M 544 136 Q 548 286 552 424 L 553 451 Q 556 622 577 716 Q 581 731 558 749 Q 516 770 488 774 Q 469 778 460 768 Q 451 758 461 741 Q 498 689 497 653 Q 510 412 495 131 C 493 101 543 106 544 136 Z" fill="currentColor" />
  <path d="M 552 424 Q 603 406 652 420 Q 716 433 781 449 Q 812 456 816 461 Q 825 471 820 479 Q 811 492 780 498 Q 747 504 715 490 Q 682 477 645 468 Q 605 458 557 452 Q 554 452 553 451 C 523 446 523 433 552 424 Z" fill="currentColor" />
  <path d="M 347 116 Q 334 323 339 400 Q 343 425 326 439 Q 301 458 270 469 Q 254 475 244 468 Q 235 461 243 444 Q 267 398 278 350 Q 285 302 302 113 C 305 83 349 86 347 116 Z" fill="currentColor" />
  <path d="M 495 131 Q 423 127 347 116 L 302 113 Q 217 106 128 98 Q 103 97 120 75 Q 156 39 201 49 Q 498 118 900 96 Q 901 97 904 96 Q 928 95 934 105 Q 941 118 922 136 Q 859 184 788 170 Q 691 155 544 136 L 495 131 Z" fill="currentColor" />
</g>
<g transform="translate(43.57,118.37) scale(0.197738,0.197738) translate(-130.00,716.00) scale(1,-1)">
  <path d="M 532 313 Q 539 325 549 337 Q 616 430 658 564 Q 673 612 708 643 Q 730 662 711 678 Q 686 696 653 704 Q 626 716 551 686 Q 404 646 283 635 Q 262 635 258 629 Q 254 616 280 599 Q 311 578 384 603 Q 568 658 589 652 Q 601 652 601 632 Q 568 473 491 354 L 468 322 Q 438 288 405 254 Q 317 175 148 91 Q 130 82 140 76 Q 147 72 175 81 Q 400 151 503 276 L 532 313 Z" fill="currentColor" />
  <path d="M 503 276 Q 669 62 732 58 Q 844 49 936 57 Q 984 61 980 74 Q 979 80 932 96 Q 749 153 725 166 Q 623 221 532 313 L 491 354 Q 428 423 364 503 Q 327 549 289 553 Q 270 554 265 550 Q 262 543 278 530 Q 344 485 468 322 L 503 276 Z" fill="currentColor" />
</g>
</svg>