<svg xmlns="http://www.w3.org/2000/svg" viewBox="0 0 256 256" width="256" height="256" style="color: #000">
<g transform="translate(65.30,4.51) scale(0.182262,0.130187) translate(-167.00,828.00) scale(1,-1)">
  <path d="M 330 536 Q 397 597 434 638 Q 518 732 544 746 Q 569 764 552 783 Q 531 802 496 815 Q 463 828 448 821 Q 432 817 440 801 Q 452 762 384 658 Q 306 538 305 535 C 289 509 308 516 330 536 Z" fill="currentColor" />
  <path d="M 227 531 Q 209 541 190 547 Q 183 550 176 543 Q 167 537 178 524 Q 236 419 241 179 Q 242 113 281 79 Q 282 78 287 75 Q 306 69 309 104 Q 309 111 309 117 L 304 156 Q 303 169 298 184 Q 292 239 283 310 Q 282 311 282 312 L 279 342 Q 272 421 270 485 C 269 510 254 517 227 531 Z" fill="currentColor" />
  <path d="M 640 134 Q 650 106 675 51 Q 684 32 695 32 Q 713 35 724 63 Q 772 150 780 268 Q 792 341 801 428 Q 808 483 834 518 Q 855 540 840 556 Q 815 581 761 606 Q 740 618 702 605 Q 555 557 330 536 L 305 535 Q 268 535 227 531 C 197 529 241 478 270 485 Q 303 497 669 549 Q 712 556 729 536 Q 739 515 739 494 Q 732 337 696 185 Q 692 158 681 156 Q 677 155 664 160 C 635 153 633 152 640 134 Z" fill="currentColor" />
  <path d="M 282 312 Q 297 305 324 308 Q 490 330 613 342 Q 643 345 633 362 Q 620 381 588 389 Q 558 396 505 384 Q 382 360 279 342 C 249 337 253 321 282 312 Z" fill="currentColor" />
  <path d="M 309 117 Q 315 116 324 117 Q 426 133 640 134 C 670 134 685 139 664 160 Q 655 170 643 179 Q 625 192 590 186 Q 431 162 304 156 C 274 154 279 118 309 117 Z" fill="currentColor" />
</g>
<g transform="translate(41.64,118.37) scale(0.229060,0.184206) translate(-192.00,762.00) scale(1,-1)">
  <path d="M 657 508 Q 696 634 739 664 Q 758 686 741 708 Q 720 724 658 753 Q 636 762 610 752 Q 489 695 295 659 C 266 653 277 611 306 620 Q 396 647 425 652 L 471 664 Q 523 679 581 693 Q 612 703 626 691 Q 639 678 634 651 Q 616 572 594 509 C 584 481 648 479 657 508 Z" fill="currentColor" />
  <path d="M 425 652 Q 426 640 422 465 C 421 435 468 447 472 477 Q 485 585 492 613 Q 504 640 472 663 L 471 664 C 448 683 424 682 425 652 Z" fill="currentColor" />
  <path d="M 273 411 Q 291 398 314 404 Q 428 435 675 469 Q 687 470 688 481 Q 688 490 657 508 L 594 509 Q 530 493 472 477 L 422 465 Q 343 450 276 439 Q 273 439 274 438 C 245 432 247 425 273 411 Z" fill="currentColor" />
  <path d="M 929 157 Q 905 224 890 337 Q 887 356 878 362 Q 868 369 864 343 Q 851 201 831 176 Q 774 113 538 115 Q 409 121 355 144 Q 307 169 297 202 Q 276 253 272 387 Q 272 400 273 411 L 274 438 Q 280 549 301 605 Q 304 612 306 620 C 314 645 314 645 295 659 Q 294 660 292 662 Q 229 708 211 703 Q 192 696 202 675 Q 227 629 222 560 Q 218 232 249 167 Q 286 80 446 59 Q 548 46 707 56 Q 851 66 907 97 Q 946 118 929 157 Z" fill="currentColor" />
</g>
</svg>