<svg xmlns="http://www.w3.org/2000/svg" viewBox="0 0 256 256" width="256" height="256" style="color: #000">
<g transform="translate(48.34,2.25) scale(0.193591,0.138279) translate(-124.00,803.00) scale(1,-1)">
  <path d="M 453 738 Q 489 710 527 674 Q 543 658 562 660 Q 575 661 580 676 Q 586 695 574 729 Q 567 754 528 772 Q 438 803 420 796 Q 414 792 416 775 Q 420 762 453 738 Z" fill="currentColor" />
  <path d="M 264 551 Q 252 578 240 589 Q 221 605 218 577 Q 224 541 166 475 Q 124 436 155 371 Q 170 343 193 371 Q 212 399 229 441 Q 247 492 263 524 C 270 538 270 538 264 551 Z" fill="currentColor" />
  <path d="M 263 524 Q 293 503 331 515 Q 475 560 672 578 Q 712 582 727 580 Q 745 567 741 558 Q 729 510 715 462 L 717 461 Q 726 457 742 471 Q 797 513 844 528 Q 881 543 880 551 Q 879 561 800 614 Q 776 632 695 615 Q 581 602 373 566 Q 321 557 267 552 Q 266 552 264 551 C 234 547 236 538 263 524 Z" fill="currentColor" />
  <path d="M 347 340 Q 348 232 218 100 Q 182 76 146 37 Q 136 21 153 25 Q 175 26 207 47 Q 304 110 363 195 Q 400 246 434 287 Q 447 300 432 318 Q 383 360 358 358 Q 345 357 347 340 Z" fill="currentColor" />
  <path d="M 494 401 Q 528 376 549 337 Q 649 168 731 51 Q 747 29 775 26 Q 878 22 917 26 Q 935 27 941 34 Q 947 41 936 47 Q 806 110 743 169 Q 665 242 557 397 Q 547 416 529 420 Q 498 424 488 415 Q 484 408 494 401 Z" fill="currentColor" />
</g>
<g transform="translate(2.10,125.91) scale(0.118404,0.130964) translate(-86.00,844.00) scale(1,-1)">
  <path d="M 636 765 Q 715 774 784 778 Q 796 777 807 790 Q 808 803 783 816 Q 747 844 662 821 Q 499 791 294 773 Q 263 772 231 768 Q 198 767 222 745 Q 255 715 305 722 Q 312 723 323 724 L 382 733 Q 463 748 561 757 L 636 765 Z" fill="currentColor" />
  <path d="M 323 724 Q 336 697 337 352 C 337 322 384 327 385 357 Q 386 418 388 475 L 389 506 Q 390 555 392 600 L 393 628 Q 393 665 396 692 Q 402 711 382 733 C 363 757 316 753 323 724 Z" fill="currentColor" />
  <path d="M 641 388 Q 641 655 656 730 Q 659 749 644 760 Q 640 763 636 765 C 615 786 549 785 561 757 Q 585 702 587 689 Q 590 661 587 380 L 586 339 Q 577 -6 601 -41 Q 607 -48 615 -46 Q 631 -37 638 28 Q 648 125 645 223 Q 642 260 642 341 L 641 388 Z" fill="currentColor" />
  <path d="M 392 600 Q 434 594 538 619 Q 538 620 540 620 Q 547 627 543 634 Q 536 644 511 649 Q 510 649 393 628 C 363 623 362 603 392 600 Z" fill="currentColor" />
  <path d="M 388 475 Q 440 466 553 493 Q 553 494 555 494 Q 562 501 559 509 Q 552 519 526 527 Q 508 530 432 512 Q 411 509 389 506 C 359 502 358 479 388 475 Z" fill="currentColor" />
  <path d="M 642 341 Q 730 345 838 342 Q 922 339 931 350 Q 937 363 919 380 Q 853 431 786 411 Q 722 402 641 388 L 587 380 Q 544 377 499 370 Q 444 364 385 357 L 337 352 Q 228 342 111 329 Q 86 328 104 307 Q 138 273 183 282 Q 373 331 586 339 L 642 341 Z" fill="currentColor" />
</g>
<g transform="translate(107.98,115.51) scale(0.249580,0.178272) translate(-359.00,732.00) scale(1,-1)">
  <path d="M 462 624 Q 543 649 600 660 Q 613 661 616 658 Q 629 639 624 589 Q 617 448 586 386 Q 573 356 548 359 Q 520 366 495 377 Q 470 384 488 362 Q 537 319 560 284 Q 585 262 604 285 Q 635 313 655 361 Q 677 416 680 578 Q 680 636 697 666 Q 710 681 703 691 Q 693 703 637 723 Q 615 732 595 716 Q 567 697 443 669 C 414 662 433 615 462 624 Z" fill="currentColor" />
  <path d="M 394 584 Q 398 434 397 200 Q 397 -4 417 -33 Q 423 -40 431 -38 Q 440 -34 445 -17 Q 463 25 458 202 Q 455 265 454 565 Q 454 583 462 624 C 467 654 467 654 443 669 Q 415 688 400 689 Q 385 695 369 684 Q 359 675 367 664 Q 391 621 394 584 Z" fill="currentColor" />
</g>
</svg>