<svg xmlns="http://www.w3.org/2000/svg" viewBox="0 0 256 256" width="256" height="256" style="color: #000">
<g transform="translate(0.00,0.00) scale(0.250000,0.250000) translate(0,900) scale(1,-1)">
  <path d="M 269 744 Q 257 756 237 763 Q 225 770 212 765 Q 202 759 209 744 Q 231 657 234 646 Q 234 306 200 169 Q 179 87 219 39 Q 231 23 244 37 Q 254 50 258 68 L 264 110 Q 268 144 268 196 Q 286 686 292 701 C 295 726 293 727 269 744 Z" fill="currentColor" />
  <path d="M 707 92 Q 738 52 761 15 Q 771 -6 784 -5 Q 803 -4 820 35 Q 841 80 836 133 Q 823 317 817 657 Q 816 696 836 723 Q 846 739 836 751 Q 812 775 748 804 Q 726 816 707 804 Q 613 771 469 756 Q 333 743 269 744 C 239 744 262 698 292 701 Q 317 702 652 745 Q 707 752 734 729 Q 753 707 762 577 Q 769 450 763 281 Q 757 178 753 135 Q 750 123 743 120 C 734 92 689 116 707 92 Z" fill="currentColor" />
  <path d="M 258 68 Q 265 67 276 68 Q 415 89 707 92 C 737 92 764 99 743 120 Q 736 129 721 140 Q 702 153 665 147 Q 442 116 264 110 C 234 109 228 68 258 68 Z" fill="currentColor" />
</g>
<g transform="translate(51.20,51.20) scale(0.150000,0.150000) translate(0,900) scale(1,-1)">
  <path d="M 259 724 Q 232 739 205 743 Q 198 746 191 739 Q 182 732 195 719 Q 247 646 268 454 Q 274 391 316 355 Q 319 354 323 351 Q 341 347 342 373 L 340 410 Q 336 435 327 464 Q 297 629 292 687 C 290 708 286 710 259 724 Z" fill="currentColor" />
  <path d="M 660 410 Q 681 377 700 367 Q 713 357 732 383 Q 756 423 803 634 Q 816 671 845 701 Q 861 716 848 734 Q 829 755 778 789 Q 756 801 669 782 Q 590 773 417 747 Q 329 732 259 724 C 229 720 263 680 292 687 Q 355 702 446 714 L 509 725 Q 704 759 729 733 Q 748 708 743 685 Q 703 489 685 460 Q 679 445 660 441 C 645 431 645 431 660 410 Z" fill="currentColor" />
  <path d="M 528 563 Q 585 573 642 584 Q 643 587 646 589 Q 647 599 627 608 Q 594 626 530 603 L 473 590 Q 392 580 383 577 Q 358 573 378 559 Q 405 541 444 547 Q 456 550 472 552 L 528 563 Z" fill="currentColor" />
  <path d="M 524 398 Q 584 405 660 410 C 690 412 685 425 660 441 Q 627 468 538 443 Q 531 443 525 440 L 470 430 Q 400 418 340 410 C 310 406 313 365 342 373 Q 372 383 469 393 L 524 398 Z" fill="currentColor" />
  <path d="M 464 -7 Q 470 -35 477 -45 Q 483 -52 491 -50 Q 506 -41 515 24 Q 525 115 524 206 Q 523 257 524 398 L 525 440 Q 526 495 528 563 L 530 603 Q 531 631 543 681 Q 547 700 531 711 Q 518 720 509 725 C 484 741 431 740 446 714 Q 452 702 459 691 Q 472 664 473 590 L 472 552 Q 471 497 470 430 L 469 393 Q 463 14 464 -7 Z" fill="currentColor" />
</g>
</svg>