<svg xmlns="http://www.w3.org/2000/svg" viewBox="0 0 256 256" width="256" height="256" style="color: #000">
<g transform="translate(82.28,4.51) scale(0.125611,0.125611) translate(-132.00,809.00) scale(1,-1)">
  <path d="M 191 698 Q 190 699 189 700 Q 161 721 144 713 Q 137 709 143 696 Q 144 687 149 678 Q 177 630 156 403 Q 132 315 168 267 L 170 265 Q 180 252 191 265 Q 198 277 205 323 L 206 358 Q 206 425 207 493 L 208 524 Q 209 641 212 651 Q 213 663 212 670 C 212 683 212 683 191 698 Z" fill="currentColor" />
  <path d="M 322 335 Q 346 304 363 275 Q 370 259 381 260 Q 396 261 410 290 Q 426 324 423 366 Q 416 460 412 634 Q 411 662 426 681 Q 433 691 426 701 Q 410 719 363 740 Q 347 747 333 740 Q 291 719 191 698 C 162 692 182 665 212 670 Q 227 671 247 677 Q 343 696 351 691 Q 375 670 359 376 Q 358 373 358 369 Q 357 363 354 360 C 346 331 304 359 322 335 Z" fill="currentColor" />
  <path d="M 207 493 Q 268 502 312 511 Q 334 515 326 528 Q 314 543 288 545 Q 248 548 208 524 C 182 509 177 489 207 493 Z" fill="currentColor" />
  <path d="M 205 323 Q 211 323 219 324 Q 253 331 322 335 C 352 337 376 340 354 360 Q 347 367 334 375 Q 318 385 287 376 Q 244 366 206 358 C 177 352 175 322 205 323 Z" fill="currentColor" />
  <path d="M 586 396 Q 586 400 587 403 Q 597 469 602 551 L 604 581 Q 610 711 613 724 C 616 753 616 753 608 757 Q 604 761 599 763 Q 550 788 535 785 Q 514 781 531 759 Q 568 690 545 442 Q 538 340 484 220 Q 444 127 324 16 Q 309 3 306 -4 Q 305 -11 316 -10 Q 362 -10 454 91 Q 553 203 581 369 L 586 396 Z" fill="currentColor" />
  <path d="M 613 724 Q 617 727 625 728 Q 682 740 737 753 Q 759 757 764 746 Q 782 701 789 376 Q 790 115 778 95 Q 774 88 754 93 Q 720 103 684 114 Q 663 121 664 111 Q 731 54 769 13 Q 782 -8 799 -12 Q 809 -16 818 -6 Q 860 52 858 103 Q 842 311 834 648 Q 831 709 846 736 Q 858 757 845 768 Q 823 787 783 802 Q 764 809 747 801 Q 693 771 608 757 C 579 751 584 717 613 724 Z" fill="currentColor" />
  <path d="M 602 551 Q 626 545 732 566 Q 748 570 751 572 Q 758 579 755 586 Q 748 596 723 602 Q 705 605 637 587 Q 619 586 604 581 C 575 572 572 556 602 551 Z" fill="currentColor" />
  <path d="M 581 369 Q 608 360 733 381 Q 752 385 755 388 Q 762 395 759 402 Q 752 412 727 418 Q 702 424 676 414 Q 654 407 631 402 Q 609 398 586 396 C 556 393 552 376 581 369 Z" fill="currentColor" />
</g>
<g transform="translate(4.20,129.66) scale(0.123640,0.139096) translate(-160.00,795.00) scale(1,-1)">
  <path d="M 226 483 Q 254 443 285 393 Q 295 375 312 372 Q 324 369 333 381 Q 342 396 342 430 Q 342 472 235 536 Q 220 543 213 543 Q 206 540 204 526 Q 205 513 226 483 Z" fill="currentColor" />
  <path d="M 690 568 Q 677 547 584 441 Q 571 422 592 425 Q 638 449 738 513 Q 762 532 791 543 Q 816 553 805 575 Q 789 597 759 615 Q 731 633 715 629 Q 700 628 704 612 Q 708 590 690 568 Z" fill="currentColor" />
  <path d="M 511 382 Q 520 439 529 618 Q 530 669 548 728 Q 554 741 543 750 Q 521 769 479 785 Q 454 795 434 789 Q 410 779 430 759 Q 464 725 465 690 Q 469 500 448 374 Q 427 209 284 106 Q 244 81 186 49 Q 170 43 167 39 Q 160 32 179 29 Q 197 28 258 48 Q 301 61 365 101 Q 414 131 442 172 Q 484 232 504 341 L 511 382 Z" fill="currentColor" />
  <path d="M 504 341 Q 597 175 715 40 Q 740 9 767 9 Q 843 13 911 17 Q 939 18 940 25 Q 941 32 910 48 Q 753 117 709 157 Q 592 268 511 382 C 493 406 489 367 504 341 Z" fill="currentColor" />
</g>
<g transform="translate(111.00,118.37) scale(0.151690,0.150047) translate(-99.00,836.00) scale(1,-1)">
  <path d="M 535 506 Q 538 699 560 762 Q 578 793 520 817 Q 486 836 465 830 Q 447 823 463 799 Q 485 771 486 736 Q 490 697 478 121 Q 477 97 463 88 Q 454 81 432 88 Q 407 94 382 99 Q 348 111 351 100 Q 352 93 373 78 Q 440 24 457 -5 Q 476 -41 493 -42 Q 508 -43 524 -7 Q 543 41 541 117 Q 531 294 534 470 L 535 506 Z" fill="currentColor" />
  <path d="M 154 501 Q 141 501 139 492 Q 138 485 153 477 Q 199 452 227 461 Q 333 489 343 489 Q 359 486 347 456 Q 296 326 249 262 Q 201 190 114 119 Q 99 106 110 103 Q 120 102 141 113 Q 217 153 281 224 Q 342 288 419 454 Q 429 478 441 489 Q 456 501 447 511 Q 437 524 399 537 Q 378 549 336 530 Q 270 509 154 501 Z" fill="currentColor" />
  <path d="M 590 446 Q 630 476 766 584 Q 787 603 814 615 Q 838 627 825 647 Q 809 666 779 681 Q 752 696 738 692 Q 723 691 729 675 Q 735 639 659 553 Q 620 508 577 459 C 557 436 566 428 590 446 Z" fill="currentColor" />
  <path d="M 577 459 Q 555 484 535 506 C 515 528 516 494 534 470 Q 756 161 817 160 Q 898 169 967 175 Q 995 178 996 185 Q 997 192 964 205 Q 810 253 753 295 Q 690 346 590 446 L 577 459 Z" fill="currentColor" />
</g>
</svg>